<svg width="1024" height="1024" viewBox="0 0 1024 1024" fill="none" xmlns="http://www.w3.org/2000/svg">
<rect width="1024" height="1024" fill="#E9E9E9"/>
<g clip-path="url(#clip0_1_2)">
<path d="M624.875 410.526L613.474 399.125L399.125 613.474L410.526 624.875L426.651 608.75H592.625C596.9 608.744 600.998 607.044 604.021 604.021C607.044 600.998 608.744 596.9 608.75 592.625V426.651L624.875 410.526ZM592.625 592.625H442.776L505.606 529.794L524.786 548.972C527.81 551.996 531.911 553.695 536.188 553.695C540.464 553.695 544.565 551.996 547.589 548.972L560.375 536.188L592.625 568.416V592.625ZM592.625 545.606L571.777 524.757C568.753 521.733 564.652 520.034 560.375 520.034C556.098 520.034 551.997 521.733 548.973 524.757L536.188 537.544L517.023 518.378L592.625 442.776V545.606Z" fill="#C6C6C6"/>
<path d="M431.375 560.375V536.188L471.688 495.902L482.76 506.975L494.175 495.558L483.089 484.472C480.065 481.448 475.964 479.749 471.688 479.749C467.411 479.749 463.31 481.448 460.286 484.472L431.375 513.384V431.375H560.375V415.25H431.375C427.1 415.254 423.001 416.955 419.978 419.978C416.955 423.001 415.254 427.1 415.25 431.375V560.375H431.375Z" fill="#C6C6C6"/>
</g>
<defs>
<clipPath id="clip0_1_2">
<rect width="258" height="258" fill="white" transform="translate(383 383)"/>
</clipPath>
</defs>
</svg>
